<svg xmlns="http://www.w3.org/2000/svg" viewBox="0 0 500 372.61"><defs><style>.cls-1{fill:#ebebeb;}.cls-2{fill:#fafafa;}.cls-3{fill:#e0e0e0;}.cls-4{opacity:0.8;}.cls-5{fill:#f5f5f5;}.cls-6{fill:#f0f0f0;}.cls-7{fill:#e6e6e6;}.cls-17,.cls-8{fill:#263238;}.cls-21,.cls-22,.cls-9{fill:#407bff;}.cls-10,.cls-15,.cls-18,.cls-19,.cls-20,.cls-24{fill:#fff;}.cls-10,.cls-22{opacity:0.6;}.cls-11,.cls-14,.cls-17{opacity:0.3;}.cls-12{fill:#ffb573;}.cls-13,.cls-19,.cls-25{opacity:0.2;}.cls-16{fill:#ed893e;}.cls-18,.cls-23{opacity:0.1;}.cls-20{opacity:0.9;}.cls-21{opacity:0.5;}.cls-24{opacity:0.7;}</style></defs><title>study</title><g id="Layer_2" data-name="Layer 2"><g id="Background_Complete" data-name="Background Complete"><rect class="cls-1" y="327.45" width="500" height="0.25"/><rect class="cls-1" x="394.36" y="338.9" width="50.9" height="0.25"/><rect class="cls-1" x="52.46" y="335.94" width="47.21" height="0.25"/><rect class="cls-1" x="378.81" y="334.26" width="19.19" height="0.25"/><rect class="cls-1" x="317.14" y="340.89" width="14.08" height="0.25"/><rect class="cls-1" x="272.79" y="340.89" width="35.44" height="0.25"/><rect class="cls-1" x="195.22" y="336.66" width="56.99" height="0.25"/><path class="cls-1" d="M237,282.85H43.91a5.71,5.71,0,0,1-5.7-5.71V5.71A5.71,5.71,0,0,1,43.91,0H237a5.71,5.71,0,0,1,5.71,5.71V277.14A5.71,5.71,0,0,1,237,282.85ZM43.91.25a5.46,5.46,0,0,0-5.45,5.46V277.14a5.46,5.46,0,0,0,5.45,5.46H237a5.47,5.47,0,0,0,5.46-5.46V5.71A5.47,5.47,0,0,0,237,.25Z"/><path class="cls-1" d="M453.31,282.85H260.21a5.72,5.72,0,0,1-5.71-5.71V5.71A5.72,5.72,0,0,1,260.21,0h193.1A5.71,5.71,0,0,1,459,5.71V277.14A5.71,5.71,0,0,1,453.31,282.85ZM260.21.25a5.47,5.47,0,0,0-5.46,5.46V277.14a5.47,5.47,0,0,0,5.46,5.46h193.1a5.47,5.47,0,0,0,5.46-5.46V5.71A5.47,5.47,0,0,0,453.31.25Z"/><rect class="cls-1" x="288.57" y="30.71" width="101.8" height="296.73"/><rect class="cls-2" x="197.11" y="135.05" width="284.73" height="88.06" transform="translate(518.55 -160.39) rotate(90)"/><rect class="cls-1" x="183.72" y="30.71" width="101.8" height="296.73"/><rect class="cls-3" x="285.52" y="31.88" width="3.05" height="294.4" transform="translate(574.09 358.16) rotate(180)"/><rect class="cls-2" x="92.25" y="135.05" width="284.73" height="88.06" transform="translate(413.7 -55.54) rotate(90)"/><path class="cls-3" d="M436.87,28.49H137.22a1.34,1.34,0,0,1-1.33-1.33h0a1.34,1.34,0,0,1,1.33-1.33H436.87a1.34,1.34,0,0,1,1.33,1.33h0A1.34,1.34,0,0,1,436.87,28.49Z"/><rect class="cls-3" x="336.64" y="-4.48" width="5.67" height="88.06" transform="translate(379.02 -299.92) rotate(90)"/><rect class="cls-3" x="334.69" y="-2.54" width="9.56" height="88.06" transform="translate(380.96 -297.98) rotate(90)"/><rect class="cls-3" x="224.17" y="3.13" width="20.89" height="88.06" transform="translate(281.78 -187.46) rotate(90)"/><g class="cls-4"><rect class="cls-5" x="375.24" y="19.6" width="28.2" height="304.19"/><rect class="cls-6" x="382.69" y="19.6" width="13.31" height="304.19"/><rect class="cls-5" x="390.37" y="19.6" width="28.2" height="304.19"/><rect class="cls-6" x="397.82" y="19.6" width="13.31" height="304.19"/><rect class="cls-5" x="404.47" y="19.6" width="28.2" height="304.19"/></g><g class="cls-4"><rect class="cls-5" x="140.53" y="19.6" width="40.93" height="304.19"/><rect class="cls-6" x="151.33" y="19.6" width="19.32" height="304.19"/><rect class="cls-5" x="162.48" y="19.6" width="40.93" height="304.19"/><rect class="cls-6" x="173.28" y="19.6" width="19.32" height="304.19"/><rect class="cls-5" x="182.94" y="19.6" width="40.93" height="304.19"/></g><rect class="cls-6" x="55.07" y="50.78" width="66.03" height="148.67"/><rect class="cls-7" x="121.1" y="50.78" width="2.08" height="148.67" transform="translate(244.28 250.23) rotate(180)"/><rect class="cls-2" x="19.75" y="98.1" width="136.67" height="54.03" transform="translate(213.2 37.03) rotate(90)"/><path class="cls-5" d="M125.26,273.12H57.48a5.64,5.64,0,0,1-5.63-5.62h0a5.64,5.64,0,0,1,5.63-5.62h67.78a5.64,5.64,0,0,1,5.62,5.62h0A5.64,5.64,0,0,1,125.26,273.12Z"/><polygon class="cls-7" points="73.78 273.12 62.65 273.12 50 327.45 61.12 327.45 73.78 273.12"/><polygon class="cls-7" points="95.98 273.12 84.86 273.12 78.63 327.45 89.75 327.45 95.98 273.12"/><polygon class="cls-7" points="108.96 273.12 120.08 273.12 132.74 327.45 121.61 327.45 108.96 273.12"/></g><g id="Shadow"><ellipse id="_Path_" data-name="&lt;Path&gt;" class="cls-5" cx="250" cy="361.29" rx="193.89" ry="11.32"/></g><g id="Character"><rect class="cls-8" x="226.31" y="243.41" width="91.19" height="9.22" rx="2.93"/><polygon class="cls-9" points="313.76 355.29 317.5 355.29 313.2 252.63 308.02 252.63 313.76 355.29"/><polygon class="cls-10" points="313.76 355.29 317.5 355.29 313.2 252.63 308.02 252.63 313.76 355.29"/><polygon class="cls-9" points="279.33 355.29 275.59 355.29 279.89 252.63 285.07 252.63 279.33 355.29"/><polygon class="cls-10" points="279.33 355.29 275.59 355.29 279.89 252.63 285.07 252.63 279.33 355.29"/><polygon class="cls-9" points="264.49 355.29 268.23 355.29 263.92 252.63 258.75 252.63 264.49 355.29"/><polygon class="cls-10" points="264.49 355.29 268.23 355.29 263.92 252.63 258.75 252.63 264.49 355.29"/><polygon class="cls-9" points="230.05 355.29 226.31 355.29 230.62 252.63 235.79 252.63 230.05 355.29"/><polygon class="cls-10" points="230.05 355.29 226.31 355.29 230.62 252.63 235.79 252.63 230.05 355.29"/><g class="cls-11"><polygon class="cls-9" points="313.2 252.62 308.02 252.62 308.26 256.99 313.38 256.99 313.2 252.62"/><polygon class="cls-9" points="279.71 256.99 284.82 256.99 285.07 252.62 279.89 252.62 279.71 256.99"/><polygon class="cls-9" points="258.75 252.62 258.99 256.99 264.11 256.99 263.92 252.62 258.75 252.62"/><polygon class="cls-9" points="230.43 256.99 235.56 256.99 235.8 252.62 230.62 252.62 230.43 256.99"/></g><polygon class="cls-12" points="262.08 340.2 253.62 344.7 240.28 326.69 248.75 322.19 262.08 340.2"/><path class="cls-8" d="M250.56,341.92l8.84-6.14a.68.68,0,0,1,1,.13l5.29,6.69a1.71,1.71,0,0,1-.41,2.36c-3.11,2.08-4.51,2.81-8.58,5.23-2.51,1.48-8.51,5-12.2,6.61s-5.17-2.09-3.75-3.1c3.37-2.38,7.83-7.07,8.84-10.35A2.67,2.67,0,0,1,250.56,341.92Z"/><polygon class="cls-13" points="248.76 322.19 240.28 326.69 246.71 335.36 254.99 330.61 248.76 322.19"/><path class="cls-9" d="M269.19,215.52s-65.74-2.05-66,25.42c-.32,39.48,37.15,91.32,37.15,91.32L255,322.51s-25.68-37.69-25.9-68.51c19.37-5.47,65-2,70.91-18.09,4.84-13.14,2.31-20.39,2.31-20.39Z"/><path class="cls-13" d="M269.19,215.52s-65.74-2.05-66,25.42c-.32,39.48,37.15,91.32,37.15,91.32L255,322.51s-25.68-37.69-25.9-68.51c19.37-5.47,65-2,70.91-18.09,4.84-13.14,2.31-20.39,2.31-20.39Z"/><polygon class="cls-8" points="258.98 325.02 241.54 335.7 236.07 330.15 255.23 318.09 258.98 325.02"/><path class="cls-9" d="M248.73,345.23a12.09,12.09,0,0,0,1.9-1.74.22.22,0,0,0-.17-.37c-.37,0-3.65,0-4.35,1.07a.83.83,0,0,0-.07.81,1.22,1.22,0,0,0,.92.84A2.62,2.62,0,0,0,248.73,345.23Zm1.21-1.66c-1.21,1.26-2.28,1.94-2.9,1.83a.79.79,0,0,1-.58-.56.38.38,0,0,1,0-.4C246.86,343.88,248.63,343.63,249.94,343.57Z"/><path class="cls-9" d="M250.59,343.52a.19.19,0,0,0,.07-.08.2.2,0,0,0,0-.21c-.06-.1-1.46-2.49-2.78-2.7a1.13,1.13,0,0,0-1,.28.87.87,0,0,0-.28,1c.42,1,2.73,1.81,3.84,1.73A.15.15,0,0,0,250.59,343.52Zm-3.29-2.44a.69.69,0,0,1,.51-.11c.79.13,1.75,1.38,2.25,2.14-1.09-.1-2.73-.81-3-1.45-.05-.13-.08-.29.17-.51Z"/><polygon class="cls-12" points="246.43 351.24 236.93 350.79 235.37 328.36 244.87 328.81 246.43 351.24"/><path class="cls-8" d="M236.71,349.17l10.75-.34a.69.69,0,0,1,.74.63L249,358a1.71,1.71,0,0,1-1.63,1.76c-3.74.05-5.54-.11-10.27,0-2.91.09-8.63.52-12.62,0s-3.38-4.44-1.65-4.58c4.11-.33,9.62-3.17,12.26-5.38A2.63,2.63,0,0,1,236.71,349.17Z"/><path class="cls-9" d="M233.37,350.94a12.35,12.35,0,0,0,2.54-.42.21.21,0,0,0,.16-.18.21.21,0,0,0-.1-.22c-.31-.21-3.08-2-4.23-1.48a.85.85,0,0,0-.5.65,1.23,1.23,0,0,0,.31,1.2A2.61,2.61,0,0,0,233.37,350.94Zm1.91-.73c-1.7.4-3,.39-3.42,0a.84.84,0,0,1-.19-.8.43.43,0,0,1,.24-.32C232.53,348.79,234.15,349.54,235.28,350.21Z"/><path class="cls-9" d="M235.86,350.53l.1,0a.21.21,0,0,0,.11-.19c0-.11.14-2.87-.86-3.77a1.11,1.11,0,0,0-1-.29.86.86,0,0,0-.79.71c-.19,1.05,1.3,3,2.27,3.54Zm-1.43-3.84a.63.63,0,0,1,.48.18c.6.53.72,2.11.73,3-.86-.68-1.86-2.17-1.73-2.86,0-.13.09-.28.41-.33Z"/><polygon class="cls-13" points="244.88 328.81 235.37 328.36 236.26 341.19 245.74 341.18 244.88 328.81"/><path class="cls-9" d="M292.57,215.52s-68.78,6.5-66.28,27.21c3.62,29.86,5.4,94.22,5.4,94.22l17.53.69s7.43-58.05,3.59-88.63c17.8,0,61.38,1.28,65.35-9.45,3.51-9.47,2.26-24,2.26-24Z"/><polygon class="cls-8" points="251.16 338.72 230.12 337.68 229.36 328.52 252.44 330.11 251.16 338.72"/><path class="cls-12" d="M277.31,154.86c-.13,1.68-.26,3.13-.45,4.68s-.39,3-.63,4.56c-.47,3-1.07,6-1.77,9.07a71.91,71.91,0,0,1-6.59,18.22,32.61,32.61,0,0,1-3.09,4.58,20.87,20.87,0,0,1-4.54,4.23,22.69,22.69,0,0,1-11.07,3.74,31.74,31.74,0,0,1-10.29-1,38.33,38.33,0,0,1-4.66-1.49c-.76-.29-1.5-.62-2.23-1s-1.41-.7-2.25-1.15l2.63-6.69,1.91.24,2,.2q2,.16,4,.18a28.1,28.1,0,0,0,7.21-.83,10.92,10.92,0,0,0,6.75-4.59,24.61,24.61,0,0,0,1.58-2.84,45.89,45.89,0,0,0,2.59-7.11c.76-2.53,1.37-5.19,1.92-7.88s1-5.43,1.45-8.19l.59-4.14c.18-1.35.38-2.81.51-4Z"/><path class="cls-8" d="M277.37,146.71c-7-6.8-15.7-2.78-19.16,9.94a118.15,118.15,0,0,0-4,20.88l22.27,4.6C280.53,170,284.57,153.67,277.37,146.71Z"/><path class="cls-14" d="M270.2,160.61c1.59-1.44,6.11,5,8.87,12.93-.78,3-1.67,5.89-2.58,8.6l-13.4-2.77C264.16,171.45,266.63,163.83,270.2,160.61Z"/><path class="cls-12" d="M230.86,189.58l-5-1.91-.22,10.62s8.4,3.63,10.11-.54l-.6-2.65A8.61,8.61,0,0,0,230.86,189.58Z"/><polygon class="cls-12" points="219.96 187.96 217.01 196.86 225.68 198.29 225.9 187.68 219.96 187.96"/><path class="cls-8" d="M227.52,195a.56.56,0,0,1-.51-.31l-8.93-17.19a.57.57,0,1,1,1-.53L228,194.18a.58.58,0,0,1-.24.78A.66.66,0,0,1,227.52,195Z"/><path class="cls-8" d="M276.54,139.9l10.68-3.05,13.72-.65a9.53,9.53,0,0,1,9.5,6.56c2.61,8,5,19.53,6.77,29.5,2,11.18,3,28,3.21,43.26H269.19c-1.17-31.85-5.22-50.68-7-61.1a9.48,9.48,0,0,1,5.28-10.19Z"/><path class="cls-14" d="M317.21,172.26c-1.38-7.84-3.16-16.68-5.14-24-9.13-1.55-13.55,18.48-10.84,28.41s17.16,3.91,17.16,3.91C318.05,177.6,317.65,174.79,317.21,172.26Z"/><path class="cls-8" d="M285.4,116.06c2.2,5.4.88,15.3-3.46,12.5S284.06,112.76,285.4,116.06Z"/><path class="cls-12" d="M283,119.51l-4.15,6.33-5.64,8.63a8.84,8.84,0,0,1,1.74,2.56c1,2.08,1.89,3.63-2.48,6.61a2.9,2.9,0,0,0-1.31,2.86c.26,1.35,1.6,2.66,6.31,1.83a21.66,21.66,0,0,0,11.82-6.57c1.57-1.56,1.21-2.75-.3-4.37C284.67,132.79,283.39,125.44,283,119.51Z"/><path class="cls-13" d="M274.56,132.35,278,126.2c.07.15.15.33.24.51a15.56,15.56,0,0,1,.74,2.35c.63,2.74-1.49,6.64-3.82,8.5l-.27-.53a10.58,10.58,0,0,0-1.6-2.45,1.1,1.1,0,0,0-.14-.11Z"/><path class="cls-8" d="M253.79,112.05c-1.29,2.91,3.28,11.15,8.51,7.82S256.07,106.89,253.79,112.05Z"/><path class="cls-15" d="M279,150.1a.29.29,0,0,1-.29-.24c-.38-2.48-2-4-3.83-5.86-2.32-2.28-4.95-4.86-5.81-9.9a.29.29,0,0,1,.23-.34.27.27,0,0,1,.33.24c.84,4.86,3.4,7.37,5.65,9.59,1.85,1.81,3.59,3.52,4,6.18a.29.29,0,0,1-.24.33Z"/><path class="cls-12" d="M281.13,109.12c2,9.06,3.56,14.27.33,20-4.88,8.67-17.08,7.49-21.72-.84-4.18-7.51-6.67-21.06,1.1-26.91A12.87,12.87,0,0,1,281.13,109.12Z"/><path class="cls-8" d="M283.82,115.34c-3.12,4.43-11.3-3.71-10.63-9.17-8.12,4.63-16.94,10.8-22.29,5.6-6.18-6-4.49-14.6,2.75-15.37-1.28,2.5,6,3.61,9.87-.26,6.55-6.48,16.9-5.12,16.71.13C285.22,94.29,290.67,105.61,283.82,115.34Z"/><path class="cls-8" d="M279.27,97.74c1.93-1.44.65-6.57-3.83-8.08C279.7,90.21,284.11,93.39,279.27,97.74Z"/><path class="cls-12" d="M286.71,114.94a8.48,8.48,0,0,1-1.9,5.71c-1.72,2-4.37.41-5-2.14-.55-2.29.16-5.84,2.42-6.94S286.59,112.36,286.71,114.94Z"/><path class="cls-8" d="M268.13,116.46c.24.74.06,1.47-.42,1.65s-1-.28-1.29-1-.06-1.47.42-1.64S267.89,115.73,268.13,116.46Z"/><path class="cls-8" d="M259.93,119.47c.25.74.06,1.47-.42,1.65s-1.05-.28-1.29-1-.05-1.47.42-1.64S259.69,118.74,259.93,119.47Z"/><path class="cls-16" d="M262.74,119.08a25,25,0,0,1-.76,6.5c1.47.53,3.09-.73,3.09-.73Z"/><path class="cls-8" d="M267.13,128.88a6.61,6.61,0,0,0,3.91-3.45.23.23,0,0,0-.12-.3.23.23,0,0,0-.3.13,6.37,6.37,0,0,1-4.45,3.42.23.23,0,0,0-.18.27.23.23,0,0,0,.27.17A5.52,5.52,0,0,0,267.13,128.88Z"/><path class="cls-8" d="M268.88,113.29a.44.44,0,0,0,.17-.16.44.44,0,0,0-.14-.62,4.34,4.34,0,0,0-4.07-.42.44.44,0,0,0-.22.6.46.46,0,0,0,.61.22,3.43,3.43,0,0,1,3.19.36A.47.47,0,0,0,268.88,113.29Z"/><path class="cls-8" d="M258.31,114.73a.45.45,0,0,0-.63-.47,4.32,4.32,0,0,0-2.66,3.11.44.44,0,0,0,.37.52.45.45,0,0,0,.52-.37A3.45,3.45,0,0,1,258,115.1.46.46,0,0,0,258.31,114.73Z"/><path class="cls-12" d="M308.67,143.07c1,1.62,1.8,3.07,2.63,4.64s1.63,3.08,2.41,4.64c1.58,3.11,3,6.31,4.38,9.57s2.59,6.61,3.63,10.12A57,57,0,0,1,324,183.29a27.09,27.09,0,0,1-.23,6.71,14.88,14.88,0,0,1-1.32,4.21,12.69,12.69,0,0,1-3.06,3.94,13.53,13.53,0,0,1-3.86,2.34,17.59,17.59,0,0,1-3.67,1,25.41,25.41,0,0,1-6.41.17,38.44,38.44,0,0,1-5.66-.91,54.2,54.2,0,0,1-5.26-1.49,64.88,64.88,0,0,1-9.86-4.17l2.53-6.73c6.22,1.18,12.9,2.27,18.51,1.93a15.65,15.65,0,0,0,3.62-.63c1-.3,1.51-.74,1.47-.88s-.06-.05-.08-.1,0-.11,0-.63a14.66,14.66,0,0,0-.2-3.35,46.12,46.12,0,0,0-2.23-8.38c-1-2.89-2.21-5.82-3.52-8.73s-2.72-5.81-4.15-8.71q-1.08-2.16-2.23-4.31l-2.26-4.18Z"/><path class="cls-8" d="M304,136.36c-9.66-1.47-14.41,6.82-9.86,19.2a117.34,117.34,0,0,0,8.82,19.33l20.83-9.13C320,153.51,313.88,137.87,304,136.36Z"/><path class="cls-12" d="M281.84,187.43l-4.46,1.35,6.33,9s9.38-3.36,7.46-7.44L288.81,189C286.79,187.83,284.23,186.61,281.84,187.43Z"/><polygon class="cls-12" points="273.43 194.97 277.9 199.44 283.71 197.77 277.38 188.78 273.43 194.97"/><ellipse class="cls-15" cx="283.18" cy="116.06" rx="1.44" ry="1.74"/><polygon class="cls-15" points="284.37 120.66 283.54 120.63 283.03 116.62 284.61 116.27 284.37 120.66"/><path class="cls-15" d="M290.11,196.24c-3,0-5.66-.44-7.27-1.9a5.77,5.77,0,0,1-1.75-4.51A46.27,46.27,0,0,1,283,177.67c1.39-5.45,2.49-9.76-.85-15.06-5.32-8.43-3.73-20.22,0-27.61,2.85-5.65,1.88-11.91,1.52-14.27-.05-.31-.09-.54-.11-.7a.29.29,0,0,1,.58-.06c0,.15.05.38.09.67.38,2.41,1.37,8.8-1.57,14.62-3.65,7.25-5.21,18.8,0,27,3.47,5.52,2.29,10.15.92,15.51a45.89,45.89,0,0,0-1.87,12,5.17,5.17,0,0,0,1.55,4.08c2.7,2.43,8.66,1.82,14.42,1.22,2.58-.26,5.25-.54,7.6-.54a.29.29,0,1,1,0,.58c-2.32,0-5,.27-7.54.54S292.49,196.24,290.11,196.24Z"/><rect class="cls-15" x="305.24" y="194.11" width="12.58" height="2" rx="0.6"/></g><g id="Desk"><path class="cls-9" d="M388.64,202.77H111.36a3.34,3.34,0,0,1-3.33-3.33h0a3.34,3.34,0,0,1,3.33-3.33H388.64a3.34,3.34,0,0,1,3.33,3.33h0A3.34,3.34,0,0,1,388.64,202.77Z"/><path class="cls-17" d="M388.64,202.77H323.73a3.34,3.34,0,0,1-3.33-3.33h0a3.34,3.34,0,0,1,3.33-3.33h64.91a3.34,3.34,0,0,1,3.33,3.33h0A3.34,3.34,0,0,1,388.64,202.77Z"/><polygon class="cls-8" points="385.58 359.67 391.97 359.67 384.62 202.77 375.78 202.77 385.58 359.67"/><polygon class="cls-18" points="385.58 359.67 391.97 359.67 384.62 202.77 375.78 202.77 385.58 359.67"/><polygon class="cls-8" points="326.79 359.67 320.4 359.67 327.75 202.77 336.59 202.77 326.79 359.67"/><polygon class="cls-19" points="326.79 359.67 320.4 359.67 327.75 202.77 336.59 202.77 326.79 359.67"/><polygon class="cls-8" points="173.22 359.67 179.6 359.67 172.25 202.77 163.41 202.77 173.22 359.67"/><polygon class="cls-18" points="173.22 359.67 179.6 359.67 172.25 202.77 163.41 202.77 173.22 359.67"/><polygon class="cls-8" points="114.42 359.67 108.03 359.67 115.38 202.77 124.22 202.77 114.42 359.67"/><polygon class="cls-19" points="114.42 359.67 108.03 359.67 115.38 202.77 124.22 202.77 114.42 359.67"/><rect class="cls-8" x="117.24" y="211.12" width="213.25" height="13.15"/><rect class="cls-19" x="117.24" y="211.12" width="213.25" height="13.15"/><path class="cls-9" d="M152.33,187.26a1.4,1.4,0,0,0-1.4,1.4v6.05a1.4,1.4,0,0,0,1.4,1.4h45.35a.46.46,0,0,0,.46-.45v-7.94a.47.47,0,0,0-.46-.46Z"/><path class="cls-20" d="M179.17,188.11h19a0,0,0,0,1,0,0v7.16a0,0,0,0,1,0,0h-19a.81.81,0,0,1-.81-.81v-5.55A.81.81,0,0,1,179.17,188.11Z"/><rect class="cls-9" x="128.84" y="187.26" width="48.61" height="8.85" rx="1.4"/><rect class="cls-13" x="128.84" y="187.26" width="48.61" height="8.85" rx="1.4"/><rect class="cls-21" x="146" y="187.26" width="8.09" height="8.85" rx="0.57"/><rect class="cls-21" x="156.04" y="187.26" width="8.08" height="8.85" rx="0.57"/><path class="cls-9" d="M144.13,176.37a1.4,1.4,0,0,0-1.4,1.4v8.09a1.4,1.4,0,0,0,1.4,1.4h49.13a.45.45,0,0,0,.45-.45v-10a.46.46,0,0,0-.45-.46Z"/><path class="cls-20" d="M171,177.21h22.74a0,0,0,0,1,0,0v9.21a0,0,0,0,1,0,0H171a.81.81,0,0,1-.81-.81V178A.81.81,0,0,1,171,177.21Z"/><rect class="cls-9" x="127.92" y="176.37" width="41.32" height="10.89" rx="1.4"/><rect class="cls-19" x="127.92" y="176.37" width="41.32" height="10.89" rx="1.4"/><rect class="cls-22" x="135.17" y="178.53" width="29.91" height="6.57" rx="0.85"/><path class="cls-9" d="M158.54,171.15c-.77,0-1.4.37-1.4.83v3.57c0,.45.63.82,1.4.82H203.9c.25,0,.45-.12.45-.27v-4.68c0-.15-.2-.27-.45-.27Z"/><path class="cls-20" d="M185.2,171.65h19.15a0,0,0,0,1,0,0v4.22a0,0,0,0,1,0,0H185.2a.62.62,0,0,1-.62-.62v-3A.62.62,0,0,1,185.2,171.65Z"/><rect class="cls-9" x="135.05" y="171.15" width="48.61" height="5.22" rx="1.07"/><rect class="cls-13" x="135.05" y="171.15" width="48.61" height="5.22" rx="1.07"/><rect class="cls-21" x="140.3" y="171.15" width="1.87" height="5.22" rx="0.21"/><rect class="cls-21" x="178.05" y="171.15" width="1.84" height="5.22" rx="0.21"/><path class="cls-9" d="M150.34,163.61c-.77,0-1.4.37-1.4.83v5.89c0,.45.63.82,1.4.82h49.13c.25,0,.46-.12.46-.26v-7c0-.15-.21-.27-.46-.27Z"/><path class="cls-20" d="M177,164.11h22.93a0,0,0,0,1,0,0v6.55a0,0,0,0,1,0,0H177a.62.62,0,0,1-.62-.62v-5.31A.62.62,0,0,1,177,164.11Z"/><rect class="cls-9" x="134.13" y="163.61" width="41.32" height="7.54" rx="1.07"/><rect class="cls-23" x="134.13" y="163.61" width="41.32" height="7.54" rx="1.07"/><path class="cls-15" d="M259.92,194.45H218.65a.84.84,0,0,0-.84.83h0a.84.84,0,0,0,.84.83h41.27a.83.83,0,0,0,.83-.83h0A.83.83,0,0,0,259.92,194.45Z"/><polygon class="cls-8" points="340.66 192.47 367.78 192.47 370.23 196.01 338.21 196.01 340.66 192.47"/><path d="M382.54,131.88a3.65,3.65,0,1,1-3.65-3.65A3.64,3.64,0,0,1,382.54,131.88Z"/><path class="cls-8" d="M355.12,194.87a1,1,0,0,1-.45-.1,1.15,1.15,0,0,1-.62-1.5l26.13-61.84a1.16,1.16,0,0,1,2.13.9l-26.13,61.83A1.16,1.16,0,0,1,355.12,194.87Z"/><path class="cls-8" d="M381.24,133a1.12,1.12,0,0,1-.69-.23L333.1,97.23a1.15,1.15,0,1,1,1.38-1.84L381.94,131a1.15,1.15,0,0,1,.23,1.61A1.17,1.17,0,0,1,381.24,133Z"/><path class="cls-8" d="M384.89,131.88a3.65,3.65,0,1,1-3.65-3.65A3.64,3.64,0,0,1,384.89,131.88Z"/><circle class="cls-8" cx="333.79" cy="96.31" r="3.64"/><path class="cls-9" d="M328.69,112.94a8.16,8.16,0,1,1,0-11.53A8.15,8.15,0,0,1,328.69,112.94Z"/><path class="cls-24" d="M328.69,112.94a8.16,8.16,0,1,1,0-11.53A8.15,8.15,0,0,1,328.69,112.94Z"/><path class="cls-8" d="M333.79,96.31a17.47,17.47,0,0,0-24.72,0L333.79,121A17.47,17.47,0,0,0,333.79,96.31Z"/><g class="cls-25"><polygon class="cls-9" points="309.06 96.31 205.24 196.11 311.75 196.11 333.79 121.03 309.06 96.31"/><polygon class="cls-24" points="309.06 96.31 205.24 196.11 311.75 196.11 333.79 121.03 309.06 96.31"/></g></g></g></svg>